<?xml version="1.0" encoding="UTF-8" standalone="no"?>
<!-- Created with Inkscape (http://www.inkscape.org/) -->

<svg
   width="42.333332mm"
   height="42.333366mm"
   viewBox="0 0 42.333332 42.333367"
   version="1.1"
   id="svg5"
   xml:space="preserve"
   inkscape:version="1.2.1 (9c6d41e410, 2022-07-14)"
   sodipodi:docname="logo.svg"
   xmlns:inkscape="http://www.inkscape.org/namespaces/inkscape"
   xmlns:sodipodi="http://sodipodi.sourceforge.net/DTD/sodipodi-0.dtd"
   xmlns:xlink="http://www.w3.org/1999/xlink"
   xmlns="http://www.w3.org/2000/svg"
   xmlns:svg="http://www.w3.org/2000/svg"
   xmlns:rdf="http://www.w3.org/1999/02/22-rdf-syntax-ns#"
   xmlns:cc="http://creativecommons.org/ns#"
   xmlns:dc="http://purl.org/dc/elements/1.1/"><title
     id="title273">JSON4Humans Logo</title><sodipodi:namedview
     id="namedview7"
     pagecolor="#505050"
     bordercolor="#ffffff"
     borderopacity="1"
     inkscape:showpageshadow="0"
     inkscape:pageopacity="0"
     inkscape:pagecheckerboard="1"
     inkscape:deskcolor="#505050"
     inkscape:document-units="mm"
     showgrid="false"
     inkscape:zoom="0.5946522"
     inkscape:cx="-820.64777"
     inkscape:cy="109.30759"
     inkscape:window-width="2560"
     inkscape:window-height="1403"
     inkscape:window-x="0"
     inkscape:window-y="0"
     inkscape:window-maximized="1"
     inkscape:current-layer="layer1" /><defs
     id="defs2"><linearGradient
       id="linearGradient8385"><stop
         offset="0"
         id="stop11" /><stop
         stop-color="#fff"
         offset="1"
         id="stop13" /></linearGradient><linearGradient
       id="linearGradient3002"
       x1="-553.27002"
       x2="-666.12"
       y1="525.90997"
       y2="413.04999"
       gradientTransform="matrix(0.99884,0,0,0.9987,689.01,-388.84)"
       gradientUnits="userSpaceOnUse"
       xlink:href="#linearGradient8385" /><linearGradient
       id="linearGradient3005"
       x1="-666.12"
       x2="-553.27002"
       y1="413.04001"
       y2="525.90997"
       gradientTransform="matrix(0.99884,0,0,0.9987,689.01,-388.84)"
       gradientUnits="userSpaceOnUse"
       xlink:href="#linearGradient8385" /><linearGradient
       id="linearGradient2795"><stop
         style="stop-color:#b8b8b8;stop-opacity:0.49803922;"
         offset="0"
         id="stop2797" /><stop
         style="stop-color:#7f7f7f;stop-opacity:0;"
         offset="1"
         id="stop2799" /></linearGradient><linearGradient
       id="linearGradient2787"><stop
         style="stop-color:#7f7f7f;stop-opacity:0.5;"
         offset="0"
         id="stop2789" /><stop
         style="stop-color:#7f7f7f;stop-opacity:0;"
         offset="1"
         id="stop2791" /></linearGradient><linearGradient
       id="linearGradient3676"><stop
         style="stop-color:#b2b2b2;stop-opacity:0.5;"
         offset="0"
         id="stop3678" /><stop
         style="stop-color:#b3b3b3;stop-opacity:0;"
         offset="1"
         id="stop3680" /></linearGradient><linearGradient
       id="linearGradient3236"><stop
         style="stop-color:#f4f4f4;stop-opacity:1"
         offset="0"
         id="stop3244" /><stop
         style="stop-color:white;stop-opacity:1"
         offset="1"
         id="stop3240" /></linearGradient><linearGradient
       id="linearGradient4671"><stop
         style="stop-color:#ffd43b;stop-opacity:1;"
         offset="0"
         id="stop4673" /><stop
         style="stop-color:#ffe873;stop-opacity:1"
         offset="1"
         id="stop4675" /></linearGradient><linearGradient
       id="linearGradient4689"><stop
         style="stop-color:#5a9fd4;stop-opacity:1;"
         offset="0"
         id="stop4691" /><stop
         style="stop-color:#306998;stop-opacity:1;"
         offset="1"
         id="stop4693" /></linearGradient><linearGradient
       x1="224.23996"
       y1="144.75717"
       x2="-65.308502"
       y2="144.75717"
       id="linearGradient2987"
       xlink:href="#linearGradient4671"
       gradientUnits="userSpaceOnUse"
       gradientTransform="translate(100.2702,99.61116)" /><linearGradient
       x1="172.94208"
       y1="77.475983"
       x2="26.670298"
       y2="76.313133"
       id="linearGradient2990"
       xlink:href="#linearGradient4689"
       gradientUnits="userSpaceOnUse"
       gradientTransform="translate(100.2702,99.61116)" /><linearGradient
       inkscape:collect="always"
       xlink:href="#linearGradient4671"
       id="linearGradient2255"
       gradientUnits="userSpaceOnUse"
       gradientTransform="matrix(0.562541,0,0,0.567972,-11.5974,-7.60954)"
       x1="224.23996"
       y1="144.75717"
       x2="-65.308502"
       y2="144.75717" /><linearGradient
       inkscape:collect="always"
       xlink:href="#linearGradient4689"
       id="linearGradient2258"
       gradientUnits="userSpaceOnUse"
       gradientTransform="matrix(0.562541,0,0,0.567972,-11.5974,-7.60954)"
       x1="172.94208"
       y1="76.176224"
       x2="26.670298"
       y2="76.313133" /><radialGradient
       inkscape:collect="always"
       xlink:href="#linearGradient2795"
       id="radialGradient2801"
       cx="61.518883"
       cy="132.28575"
       fx="61.518883"
       fy="132.28575"
       r="29.036913"
       gradientTransform="matrix(1,0,0,0.177966,0,108.7434)"
       gradientUnits="userSpaceOnUse" /><linearGradient
       inkscape:collect="always"
       xlink:href="#linearGradient4671"
       id="linearGradient1475"
       gradientUnits="userSpaceOnUse"
       gradientTransform="matrix(0.14883897,0,0,0.15027592,144.62011,31.590959)"
       x1="150.96111"
       y1="192.35176"
       x2="112.03144"
       y2="137.27299" /><linearGradient
       inkscape:collect="always"
       xlink:href="#linearGradient4689"
       id="linearGradient1478"
       gradientUnits="userSpaceOnUse"
       gradientTransform="matrix(0.14883897,0,0,0.15027592,144.62011,31.590959)"
       x1="26.648937"
       y1="20.603781"
       x2="135.66525"
       y2="114.39767" /></defs><g
     inkscape:label="Calque 1"
     inkscape:groupmode="layer"
     id="layer1"
     transform="translate(-142.12556,-31.335995)"><g
       fill-rule="evenodd"
       id="g24"
       transform="matrix(0.26458333,0,0,0.26458333,142.12556,31.336029)"><path
         d="m 79.865,119.1 c 35.398,48.255 70.04,-13.469 69.989,-50.587 C 149.7938,24.627 105.313,0.099 79.836,0.099 38.944,0.099 0,33.895 0,80.135 0,131.531 44.64,160 79.836,160 71.8715,158.8532 45.33,153.166 44.973,92.033 44.73313,50.686 58.461,34.167 79.778,41.434 c 0.47743,0.17707 23.514,9.2645 23.514,38.951 0,29.56 -23.427,38.715 -23.427,38.715 z"
         color="#000000"
         fill="url(#linearGradient3005)"
         id="path20"
         style="fill:url(#linearGradient3005)" /><path
         d="M 79.823,41.401 C 56.433,33.3391 27.78,52.617 27.78,91.23 27.78,154.278 74.501,160 80.164,160 121.056,160 160,126.204 160,79.964 160,28.568 115.36,0.099 80.164,0.099 c 9.7481,-1.35 52.541,10.55 52.541,69.037 0,38.141 -31.953,58.905 -52.735,50.033 -0.47743,-0.17707 -23.514,-9.2645 -23.514,-38.951 0,-29.56 23.367,-38.818 23.367,-38.818 z"
         color="#000000"
         fill="url(#linearGradient3002)"
         id="path22"
         style="fill:url(#linearGradient3002)" /></g><g
       id="g269"
       transform="translate(0,2.9473393)"><path
         style="fill:url(#linearGradient1478);fill-opacity:1;stroke-width:0.264583"
         d="m 163.11711,34.687454 c -1.21276,0.0056 -2.37092,0.109066 -3.38998,0.289388 -3.00202,0.530359 -3.54707,1.640444 -3.54707,3.68763 v 2.703711 h 7.09414 v 0.901237 h -7.09414 -2.66237 c -2.06175,0 -3.86709,1.239234 -4.43177,3.59668 -0.65136,2.70218 -0.68025,4.388385 0,7.209896 0.50428,2.100223 1.70856,3.596679 3.77031,3.596679 h 2.43913 v -3.241146 c 0,-2.341536 2.02595,-4.406965 4.43177,-4.406966 h 7.08587 c 1.97246,0 3.54707,-1.624056 3.54707,-3.604948 v -6.755143 c 0,-1.922552 -1.62189,-3.366764 -3.54707,-3.68763 -1.21866,-0.202862 -2.48314,-0.295023 -3.69589,-0.289388 z m -3.83646,2.174545 c 0.73277,0 1.33118,0.608183 1.33118,1.355989 0,0.745156 -0.59841,1.347721 -1.33118,1.347721 -0.73541,0 -1.33119,-0.602566 -1.33119,-1.347721 0,-0.747806 0.59578,-1.355989 1.33119,-1.355989 z"
         id="path1948" /><path
         style="fill:url(#linearGradient1475);fill-opacity:1;stroke-width:0.264583"
         d="m 171.24477,42.26942 v 3.150195 c 0,2.442304 -2.0706,4.497917 -4.43177,4.497917 h -7.08587 c -1.94094,0 -3.54707,1.661182 -3.54707,3.604948 v 6.755142 c 0,1.922554 1.67179,3.053378 3.54707,3.604949 2.24561,0.660297 4.39903,0.779629 7.08587,0 1.78598,-0.517099 3.54707,-1.557763 3.54707,-3.604949 v -2.70371 h -7.08587 v -0.901237 h 7.08587 3.54707 c 2.06176,0 2.83005,-1.438118 3.54707,-3.596679 0.74066,-2.222206 0.70914,-4.359216 0,-7.209896 -0.50953,-2.05249 -1.48269,-3.59668 -3.54707,-3.59668 z m -3.98528,17.106966 c 0.7354,1e-6 1.33118,0.602567 1.33118,1.347721 0,0.747806 -0.59578,1.35599 -1.33118,1.35599 -0.73278,0 -1.33119,-0.608184 -1.33119,-1.35599 0,-0.745154 0.59841,-1.347721 1.33119,-1.347721 z"
         id="path1950" /></g></g><metadata
     id="metadata271"><rdf:RDF><cc:Work
         rdf:about=""><dc:title>JSON4Humans Logo</dc:title><dc:creator><cc:Agent><dc:title>Axel H.</dc:title></cc:Agent></dc:creator><dc:subject><rdf:Bag><rdf:li>JSON4Humans</rdf:li></rdf:Bag></dc:subject></cc:Work></rdf:RDF></metadata></svg>
